<?xml version="1.0" standalone="no"?><!DOCTYPE svg PUBLIC "-//W3C//DTD SVG 1.1//EN" "http://www.w3.org/Graphics/SVG/1.1/DTD/svg11.dtd"><svg t="1776176569991" class="icon" viewBox="0 0 1024 1024" version="1.1" xmlns="http://www.w3.org/2000/svg" p-id="23925" data-spm-anchor-id="a313x.search_index.0.i3.494b3a81VZStFR" xmlns:xlink="http://www.w3.org/1999/xlink" width="200" height="200"><path d="M652.8 364.8c57.6 38.4 96 102.4 102.4 179.2 19.2 0 38.4 6.4 57.6 12.8-6.4-102.4-57.6-192-140.8-243.2C665.6 326.4 665.6 345.6 652.8 364.8z" fill="#7dc5eb" p-id="23926" data-spm-anchor-id="a313x.search_index.0.i4.494b3a81VZStFR" class=""></path><path d="M614.4 787.2c-32 12.8-64 25.6-102.4 25.6-38.4 0-70.4-6.4-102.4-25.6C396.8 806.4 384 819.2 371.2 832c44.8 25.6 89.6 38.4 140.8 38.4 51.2 0 102.4-12.8 140.8-38.4C640 819.2 627.2 806.4 614.4 787.2z" fill="#7dc5eb" p-id="23927" data-spm-anchor-id="a313x.search_index.0.i6.494b3a81VZStFR" class=""></path><path d="M268.8 544c6.4-76.8 44.8-140.8 102.4-179.2C364.8 345.6 358.4 326.4 352 307.2 268.8 358.4 217.6 454.4 211.2 556.8 230.4 550.4 249.6 544 268.8 544z" fill="#7dc5eb" p-id="23928" data-spm-anchor-id="a313x.search_index.0.i5.494b3a81VZStFR" class=""></path><path d="M275.2 576c-70.4 0-128 57.6-128 128 0 70.4 57.6 128 128 128s128-57.6 128-128C403.2 633.6 345.6 576 275.2 576L275.2 576z" fill="#272636" p-id="23929"></path><path d="M512 160c-70.4 0-128 57.6-128 128s57.6 128 128 128 128-57.6 128-128S582.4 160 512 160L512 160z" fill="#13227a" p-id="23930" data-spm-anchor-id="a313x.search_index.0.i2.494b3a81VZStFR" class=""></path><path d="M748.8 576c-70.4 0-128 57.6-128 128 0 70.4 57.6 128 128 128s128-57.6 128-128C876.8 633.6 819.2 576 748.8 576L748.8 576z" fill="#4166fb" p-id="23931" data-spm-anchor-id="a313x.search_index.0.i0.494b3a81VZStFR" class=""></path><path d="M275.2 576c-70.4 0-128 57.6-128 128 0 70.4 57.6 128 128 128s128-57.6 128-128C403.2 633.6 345.6 576 275.2 576L275.2 576z" fill="#ea9518" p-id="23932" data-spm-anchor-id="a313x.search_index.0.i1.494b3a81VZStFR" class=""></path></svg>