<?xml version="1.0" standalone="no"?><!DOCTYPE svg PUBLIC "-//W3C//DTD SVG 1.1//EN" "http://www.w3.org/Graphics/SVG/1.1/DTD/svg11.dtd"><svg t="1776177252430" class="icon" viewBox="0 0 1024 1024" version="1.1" xmlns="http://www.w3.org/2000/svg" p-id="33739" id="mx_n_1776177252431" xmlns:xlink="http://www.w3.org/1999/xlink" width="200" height="200"><path d="M701.91169979 313.45595024c77.69114989 51.79409995 129.48524984 138.11759985 138.11759983 241.7057997 25.89704995 0 51.79409995 8.63234997 77.69114992 17.26469999-8.63234997-138.11759985-77.69114989-258.97049968-189.91169981-328.02929962C719.17639975 261.6618503 719.17639975 287.55890029 701.91169979 313.45595024z" fill="#4c65fd" p-id="33740" data-spm-anchor-id="a313x.search_index.0.i30.494b3a81VZStFR" class=""></path><path d="M650.11759985 883.19104956c-43.16174994 17.26469999-86.32349991 34.52939994-138.11759985 34.52939998-51.79409995 0-94.95584989-8.63234997-138.11759985-34.52939998C356.61770018 909.08809954 339.35300019 926.35279952 322.08830021 943.6174995c60.42644993 34.52939994 120.85289986 51.79409995 189.91169979 51.79409992 69.05879991 0 138.11759985-17.26469999 189.91169979-51.79409992C684.64699981 926.35279952 667.38229982 909.08809954 650.11759985 883.19104956z" fill="#4c65fd" p-id="33741" data-spm-anchor-id="a313x.search_index.0.i31.494b3a81VZStFR" class=""></path><path d="M183.97070038 555.16174994c8.63234997-103.58819989 60.42644993-189.91169979 138.11759983-241.7057997C313.45595024 287.55890029 304.82360025 261.6618503 296.19125027 235.76480033 183.97070038 304.82360025 114.91190046 434.30885011 106.27955046 572.42644993 132.17660046 563.79409995 158.07365042 555.16174994 183.97070038 555.16174994z" fill="#4c65fd" p-id="33742" data-spm-anchor-id="a313x.search_index.0.i29.494b3a81VZStFR" class=""></path><path d="M192.60305036 684.64699981c51.79409995 0 86.32349991 34.52939994 86.32349992 86.32349987s-34.52939994 86.32349991-86.32349992 86.32349992-86.32349991-34.52939994-86.3234999-86.32349992S140.80895044 684.64699981 192.60305036 684.64699981M192.60305036 598.32349991c-94.95584989 0-172.64699981 77.69114989-172.64699979 172.64699977s77.69114989 172.64699981 172.64699979 172.64699982 172.64699981-77.69114989 172.6469998-172.64699982S287.55890029 598.32349991 192.60305036 598.32349991L192.60305036 598.32349991z" fill="#4c65fd" p-id="33743"></path><path d="M512 123.54425044c51.79409995 0 86.32349991 34.52939994 86.32349991 86.32349991s-34.52939994 86.32349991-86.32349991 86.32349992-86.32349991-34.52939994-86.32349991-86.32349992S468.83825006 123.54425044 512 123.54425044M512 37.22075057c-94.95584989 0-172.64699981 77.69114989-172.64699981 172.64699978s77.69114989 172.64699981 172.64699981 172.64699981 172.64699981-77.69114989 172.64699981-172.64699981S606.95584989 37.22075057 512 37.22075057L512 37.22075057z" fill="#4c65fd" p-id="33744"></path><path d="M831.39694964 684.64699981c51.79409995 0 86.32349991 34.52939994 86.3234999 86.32349987s-34.52939994 86.32349991-86.3234999 86.32349992-86.32349991-34.52939994-86.32349992-86.32349992S788.23519967 684.64699981 831.39694964 684.64699981M831.39694964 598.32349991c-94.95584989 0-172.64699981 77.69114989-172.6469998 172.64699977s77.69114989 172.64699981 172.6469998 172.64699982 172.64699981-77.69114989 172.64699979-172.64699982S926.35279952 598.32349991 831.39694964 598.32349991L831.39694964 598.32349991z" fill="#4c65fd" p-id="33745"></path><path d="M192.60305036 684.64699981c51.79409995 0 86.32349991 34.52939994 86.32349992 86.32349987s-34.52939994 86.32349991-86.32349992 86.32349992-86.32349991-34.52939994-86.3234999-86.32349992S140.80895044 684.64699981 192.60305036 684.64699981M192.60305036 598.32349991c-94.95584989 0-172.64699981 77.69114989-172.64699979 172.64699977s77.69114989 172.64699981 172.64699979 172.64699982 172.64699981-77.69114989 172.6469998-172.64699982S287.55890029 598.32349991 192.60305036 598.32349991L192.60305036 598.32349991z" fill="#4c65fd" p-id="33746" data-spm-anchor-id="a313x.search_index.0.i32.494b3a81VZStFR" class=""></path></svg>